<?xml version="1.0" encoding="utf-8"?>
<!-- Generator: Adobe Illustrator 18.1.1, SVG Export Plug-In . SVG Version: 6.00 Build 0)  -->
<svg version="1.1" id="Layer_1" xmlns="http://www.w3.org/2000/svg" xmlns:xlink="http://www.w3.org/1999/xlink" x="0px" y="0px"
	 viewBox="0 0 648 205.9" style="enable-background:new 0 0 648 205.9;" xml:space="preserve">
<style type="text/css">
	.st0{fill:#FFFFFF;}
</style>
<g>
	<path class="st0" d="M361.1,84.5c-0.3-1.1-1-2.4-1-3.8c0-3.6,0.3-7.2,0.3-10.8c0-1.5-0.2-3-0.7-4.4c-0.9-2.4-1.7-4.4,0.8-6.4
		c0.7-0.5,0.5-2.2,0.5-3.4c-0.1-9.4,0-18.9-0.6-28.3c-0.3-4.4,0.8-8.7,0.1-13.1c-0.5-3-2.6-5.9-1.2-9.1c0.6-1.4,1.4-2.6,2.1-3.9
		c0.3,0.1,0.6,0.2,0.9,0.3c0.2,0.7,0.3,1.3,0.4,1.8c2.7-0.9,4.7-3.8,8.3-1.9c1.4,0.8,3.6,0.2,5.5,0.2c6.3,0,12.6-0.8,18.7,0.3
		c3,0.5,5.3-0.2,7.9-0.4c1.4-0.1,2.8,0.2,4.3,0.4c0.8,0.1,1.7,0,2.5,0.1c2.6,0.2,5.2,0.5,7.9,0.7c0.8,0,1.9-0.1,2.4-0.6
		c2.3-2.2,4.7-1.4,7.1-0.7c0.8,0.2,1.7,0.2,2.6,0.2c3.8,0,7.1,1.4,10.5,2.8c3.2,1.3,7.1,0.9,10.4,1.9c2,0.7,3.6,2.7,5.3,4.3
		c0.8,0.8,1.1,2.2,2,2.8c3.5,2.6,6.8,5.1,8,9.6c0.2,0.8,1.1,1.6,1.9,2.2c3.4,2.3,4.7,6,6,9.4c0.7,1.8,0,4.3-0.1,6.4
		c-0.2,2.5-0.7,5-0.6,7.5c0.1,3.2,0.8,6.3,1.2,9.5c0.1,0.5,0.1,1.1-0.2,1.6c-2.5,4.5-1.8,10.5-7.4,13.8c-3.8,2.2-6.6,6-9.6,9.3
		c-0.5,0.5,0.2,2.6,0.9,3.6c1.5,2.2,3.2,4.3,4.9,6.3c0.6,0.7,1.5,1.2,2.2,1.8c4,3,8,6.1,8.9,11.5c0.3,1.6-0.1,3.4-0.2,5.1
		c-0.1,1.7-0.1,3.4-0.1,5c0,0.5,0.6,1.2,0.4,1.5c-2.4,3.1,0.2,5.9,0.4,8.9c0.2,3.1-0.1,6.3-0.3,9.5c-0.1,1.8-0.2,3.6-0.5,5.3
		c-0.2,1.3-0.4,2.9-1.2,3.8c-2.5,3-5.2,5.8-7.8,8.6c0-0.1-0.2-0.5-0.7-1.9c-0.8,2.3-1.4,3.7-2.1,5.6c-2,1.6-4.3,3.6-6.6,5.4
		c-0.5-0.1-1.3-0.6-1.6-0.4c-1.2,0.9-3,1.8-3.2,3c-0.6,3.5-4.2,3.1-5.9,5.1c-0.5,0.6-2,0.6-3,0.6c-2.7-0.1-5.4-0.2-8.2-0.5
		c-0.9-0.1-1.8-0.6-2.7-0.8c-1.1-0.2-2.3-0.6-3.4-0.4c-3.1,0.6-6.2,1.1-9.1-0.6c-0.4-0.3-1.3-0.1-1.8,0.2c-2.7,1.6-5.4,1.4-8.1,0.2
		c-0.5-0.2-1.2-0.7-1.5-0.5c-4.7,2.4-9.4,0.7-14.3,0.5c-4.6-0.2-9.2,0.9-13.8,1.3c-2.7,0.2-5.5,0-8.3,0c-1.7,0-3.4-0.1-5.1-0.3
		c-1.4-0.2-3.1-0.1-3.9-0.9c-1.9-1.9-2.8-4.4-1.9-7.3c0.4-1.3-0.3-2.8-0.3-4.2c-0.1-2.1-0.3-4.2-0.1-6.3c0.3-3.6,0.9-7.3,1.3-10.9
		c0.1-0.7-0.1-1.5-0.4-2.2c-1.3-3.5-1.1-6.9-0.1-10.5c0.6-2.3,0-4.9-0.1-7.4c0-0.7-0.4-1.5-0.2-2.2c1.6-4.9,0.2-9.8,0.1-14.7
		C359.5,97.3,360.5,91.1,361.1,84.5z M438.7,101.6c0.2-0.3,0.5-0.6,0.7-0.9c-2.1-0.5-4.9-0.4-6-1.7c-1.7-2.1-3.2-1.7-5.4-2
		c-5.2-0.6-10.1-0.7-15.2,0.3c-0.9,0.2-1.9-0.4-2.8-0.6c-2.3-0.3-5.4-1.5-6.8-0.4c-3.1,2.5-6.4,1.2-9.5,1.5
		c-4.5,0.4-6.2,2.2-5.3,6.5c0.5,2.3,1.4,4.6,1.4,6.9c0,2.3-0.9,4.5-1.2,6.8c-0.5,3.9-0.8,7.8-1.1,11.7c0,0.5,0.2,1,0.2,1.6
		c0.1,2.4,0.1,4.9,0.2,7.3c0,0.8-0.1,2,0.4,2.5c3,2.7,7,2.3,10.5,2.4c4.8,0.2,9.8-1.3,14.5-0.5c6.1,0.9,12.1,0.4,18.1,0.2
		c1.7,0,3.6-1,5.1-2c2-1.4,3.6-3.1,5.3-4.9c1.7-1.8,4.2-3.5,4.6-5.6c0.8-4.5,0.6-9.2,0.5-13.8c0-4.2-0.4-8.3-4.7-10.9
		C440.8,104.9,439.9,103,438.7,101.6z M447,40c-1.7-0.8-2.9-1.2-3.8-1.9c-1.2-1-2.2-2.4-3.4-3.6c-3.9-4.1-8.1-7.3-14.4-6.1
		c-2.7,0.5-5.6-0.4-8.3-0.4c-4.6,0-9.1,0.2-13.7,0.6c-2.2,0.2-4.5,3-6.1-0.8c-0.1-0.1-0.8,0.1-1.3,0.1c-2.2,0.1-4.3,0.2-6.9,0.4
		c-0.2,0.8-0.8,2-0.8,3.2c0,7.5,0.2,14.9,0.2,22.4c0,4.3-0.1,8.6-0.6,12.8c-0.4,3.1,2,6.2,5,5c2.8-1.1,5.4-0.5,8.1-0.4
		c8.6,0.1,17.1,0.2,25.7,0c4.2-0.1,8.4-0.8,10.7-5.4c0.7-1.3,2.4-2.3,3.8-3.1c3.8-1.9,5.4-5.4,5.7-9.1C447.4,48.8,447,44.1,447,40z"
		/>
	<path class="st0" d="M52.5,15.7c-0.6-1.1-0.3-2.4,2.4-2.1c1.2-6.2,7.3-9.9,13.2-7c0.1-2.5,1.2-2.7,3.4-2.2c2,0.4,4.2-0.3,6.3-0.6
		C78.2,4,78.8,5,79.4,5.1c2.8,0.1,5.7,0.1,8.5-0.1c1.3-0.1,2.5-0.8,3.7-0.9C92.8,4,94,4.4,95.6,4.6c0.5-0.4,1.3-1.1,2.2-2
		c1.5,1.9,3,2.2,5.5,1.6c3-0.7,6.4,0.2,9.6,0.3c1.9,0.1,4.1,0.5,5.8-0.3c3.2-1.5,5.4,0.1,7.1,2c5.2,5.8,9.6,12.4,15.2,17.7
		c1.9,1.9,3.1,4.2,5.1,6c1.3,1.1,1.9,3.1,2.8,4.6c0.2,0.4,0.2,1,0.5,1.2c3.9,2,3,5.7,3.2,8.9c0.4,5.1,1,10.2,1,15.2
		c0,4.9-1,9.9-1.2,14.8c-0.1,5,1.1,10.2,0.2,15.1c-1.2,6.5,0.6,12.7,0.4,19.1c-0.2,4.9-1,9.7-1.4,14.5c-0.1,1.3,0.2,2.6,0.2,4
		c-0.1,7.2-1.4,13.8-7.3,19.1c-4,3.6-6.7,8.5-10.4,12.4c-3.4,3.6-7.3,6.8-10.9,10.2c-1,0.9-1.8,1.9-2.9,2.6c-0.9,0.7-2,1.5-3.1,1.5
		c-10.5,0.1-21,0.1-31.5,0c-1.9,0-3.8-0.5-5.8-0.5c-1.2,0-2.4,0.5-3.7,0.8c-0.9,0.2-1.9,0.4-2.8,0.3c-2.7-0.3-5.4-1-8.1-1.1
		c-2.7-0.1-4.9-0.7-6.1-3.4c-0.3-0.8-0.9-1.6-1.6-2c-6.8-3.9-10.2-10.9-15-16.6c-2.1-2.5-4.5-4.9-6.5-7.5c-1.3-1.8-2.5-4-2.9-6.2
		c-0.5-2.8,0.4-5.8-0.1-8.6c-1.2-7.1,1.2-14.1-0.6-21.3c-1.1-4.3,0.1-9.2,0.2-13.9c0-1.5-0.2-3-0.1-4.4c0.1-1.8,0.4-3.7,0.6-5.5
		c0.1-0.7,0.6-1.5,0.3-2.1c-1.7-4.8-1.6-9.4-0.2-14.3c0.6-2.1-0.2-4.6-0.4-6.9c-0.2-2.5-0.5-5-0.6-7.6c-0.1-3.2-0.4-6.5,0-9.7
		c0.6-4.6,4.5-7.4,6.8-11c2.7-4.1,6.6-7.1,8.8-11.6C48.8,18.4,50.8,17.3,52.5,15.7z M75.8,31.9c-1.1,1.3-2,2.4-3,3.5
		c-2.9,3-6,5.8-8.7,9c-1.3,1.5-2.6,3.7-2.6,5.6c0,5.4,0.6,10.8,1,16.1c0.1,1.2,0.3,2.5-0.1,3.6c-1.7,4.8-2.2,9.6-0.9,14.7
		c0.8,3.4,0.7,7.1,0.9,10.7c0.1,1.3,0.2,2.7,0.2,4c-0.1,3.7-0.2,7.4-0.4,11.2c-0.1,1.5-0.9,3-0.8,4.5c0.2,3.2,1.2,6.4,1,9.6
		c-0.2,3,0,5.5,1.9,7.8c2.9,3.6,5.6,7.4,8.8,10.7c4,4.2,10.2,1.2,14.8,3.8c5.3-2.7,10.9-0.1,16.3-1c1.9-0.3,3.8-0.6,6-1
		c0.2-0.5,0.2-1.4,0.6-1.9c3.8-4.1,7.7-8.2,11.4-12.4c1-1.1,1.5-2.7,1.9-4.2c0.3-1,0.2-2.2,0-3.2c-0.7-3.6-1.3-7,0.6-10.7
		c0.9-1.7-0.8-4.6-0.9-7c-0.1-3.3,0.2-6.5,0.1-9.8c-0.1-3.4,2.2-7.3-1.1-9.3c0.6-2.8,1.4-5.1,1.4-7.4c0-6.4-1-12.9-0.6-19.3
		c0.3-6,1.4-11.6-2.9-17.1c-2.1-2.7-4.8-4.5-6.9-7.1c-0.4-0.4-1.4-0.3-2.1-0.5c-0.9-0.2-2.1-0.3-2.6-0.9c-2.3-2.2-5-2.3-7.9-2.3
		C92.6,32,84,31.9,75.8,31.9z"/>
	<path class="st0" d="M590.3,74.5c-0.1,1.3-0.4,2.3-0.3,3.3c0.2,1.3,0.2,3.2,1.1,3.8c1.9,1.3,2.3,3.1,3,5c0.6,1.4,2,2.5,3,3.8
		c0.7,0.8,1.6,1.5,2.1,2.4c1.9,3.4,3.8,6.9,5.5,10.4c0.7,1.5,0.8,3.2,1.3,5.1c2.3-0.2,3.5,1.1,3.7,3.8c0.1,0.9,0.5,1.9,1.1,2.7
		c2.3,3,5.1,5.7,5.4,9.8c0.1,0.8,0.8,2,1.6,2.3c2.7,1,2.3,2.7,1.6,4.5c3.5,2.2,5.9,4.9,6.1,9.1c0.1,1,0.7,1.9,1.2,2.8
		c1.6,2.6,3.4,5.2,5,7.8c1,1.6,1.7,3.3,2.8,4.8c1,1.5,2.6,2.7,3.2,4.3c1.2,3.1,5.6,4.6,4.4,8.8c-0.2,0.8-1.3,1.8-2,1.8
		c-8.7,0-17.3-0.1-26-0.1c-3.4,0-5.7-1.2-7.4-4.3c-5.3-9.4-10.8-18.5-16.1-27.9c-1.5-2.6-2.6-5.5-3.9-8.2c-0.2-0.4-0.1-1-0.4-1.2
		c-4.9-3.5-5.2-9.5-8-14.1c-1.2-1.9-3.5-3.2-5.5-4.4c-0.5-0.3-2.1,0.6-2.7,1.4c-2.4,3.2-4.7,6.6-7,10c-0.1,0.1-0.1,0.2-0.1,0.3
		c1,5.4-4.5,7-6.2,10.7c-1.5,3.2-2.9,6.4-4.4,9.5c-0.4,0.8-0.9,1.4-1.4,2.1c-1.2,1.7-2.5,3.3-3.6,5c-4.4,6.8-8.6,13.8-13.3,20.4
		c-1,1.4-4,1.9-6.1,1.9c-6.3,0-12.5-0.3-18.8-0.6c-1.2-0.1-2.3-0.4-3.7-0.6c0.1-0.7,0-1.3,0.2-1.7c1.8-3,3.7-5.9,5.3-8.9
		c1.1-2,1.8-4.1,2.7-6.2c1.6-4,4-7.3,7.1-10.4c2-1.9,2.8-5,4.2-7.5c1.2-2.1,2.5-4.2,3.8-6.2c0.2-0.3,0.8-0.5,1-0.8
		c1.6-2.9,3.1-5.7,4.6-8.6c0.2-0.3,0.2-0.8,0.4-0.9c3.6-0.5,3.1-3.9,4.1-6.1c2.2-4.9,4.2-9.8,8.1-13.6c0.5-0.5,0.3-1.7,0.7-2.5
		c0.4-0.8,5.4-5.2,6.3-5.7c-2.2-1.8-1-3.3,0.3-4.8c3-3.3,3-9.6,0.3-13.1c-1.5-1.9-2.8-4.1-4-6.2c-0.5-0.8-0.3-2.3-0.9-2.7
		c-5-3.4-5.5-9.1-8-13.9c-1.9-3.6-4.4-7-6.5-10.6c-0.7-1.2-0.7-2.7-1.3-3.7c-3.1-4.1-6.7-7.8-9-12.3c-1.6-3.1-4.3-5.7-4.5-9.6
		c-0.1-1.6-2.6-2.9-3.2-4.6c-0.6-1.8-0.1-3.9-0.1-5.8c2.9-0.2,5.4-0.3,7.9-0.4c0-0.2,0-0.3,0-0.5c-1.1-0.1-2.3-0.3-3.4-0.4
		c0-0.3,0-0.7,0.1-1c2.7,0.3,5.4,0.6,8.1,0.7c1.1,0.1,2.3-0.3,3.4-0.4c0.7-0.1,1.5-0.4,2.2-0.3C538.4,2,541.4,2,544,3
		c2,0.8,3.7,2.8,5,4.7c1.9,2.8,3.4,5.9,5,9c0.8,1.5,1.1,3.3,1.9,4.7c1.9,3,4.1,5.7,6,8.7c1.4,2.3,1.9,5.3,3.6,7.3
		c2.3,2.5,3.5,5.2,4,8.5c0.6,3.8,3.7,4.8,6.4,2.1c2.1-2.1,3.7-4.9,5.5-7.2c1.1-1.4,2.3-2.6,3.7-4.1c0.1,0.1-0.4-0.2-0.4-0.2
		c1.1-2.5,2.2-5,3.3-7.5c0.3-0.7,0.8-1.3,1.3-1.9c1-1.4,2-2.8,2.9-4.2c3.2-4.6,4.7-10,7-15.1c0.8-1.7,2.6-2.9,3.9-4.3
		c1.6-1.7,3.2-1.4,4.9-0.1c0.5,0.3,1.8,0,2.3-0.4c0.4-0.5,0.2-1.5,0.3-3c1.3,0.5,2.6,0.9,3.9,1.4c0.4,0.1,0.8,0.2,1.2,0.1
		c2.7-0.4,5.4-1.1,8.1-1c2.2,0.1,4.5,0.8,6.6,1.8c0.9,0.4,2,2.1,1.9,3.1c-0.3,3.3,0.1,7-3.9,8.7c-0.1,0-0.3,0.1-0.3,0.1
		c0.5,4.5-3.7,6.8-5,10.5c-0.1,0.4-0.1,1.1-0.3,1.2c-3.2,1.4-3,4.8-4.6,7.2c-2.9,4.3-5.8,8.5-8.7,12.7c-0.7,1-1.6,1.9-1.9,3
		c-0.7,2.7-2.3,4.6-4.2,6.6c-1.8,2-2.2,5.2-3.7,7.6c-2.2,3.7-4.7,7.2-7.3,10.7C592.1,74.2,590.9,74.3,590.3,74.5z"/>
	<path class="st0" d="M242.9,32c-4.4-1.2-8.4,1.2-12.2-1.3c-0.4-0.3-1.6,0.8-2.5,0.8c-4,0-8-0.2-11.9-0.2c-1.7,0-3.5,0.1-5.2,0.1
		c-3.8-0.1-7.6-0.3-11.3-0.5c-0.5,0-1.2-0.6-1.3-0.9c-0.4-3.3-3.1-6.2-1.4-9.9c0.4-0.9,0-2.1-0.2-3.2c-0.4-2.5-0.9-4.9-1.2-7.4
		c-0.1-0.6,0.8-1.3,1.2-2c0.7-1.1,1.4-2.2,2.1-3.3c-0.2-0.4-0.3-0.8-0.5-1.2c2.4,0.3,4.7,0.7,7.1,0.9c0.6,0.1,1.3-0.2,1.9-0.4
		c2.5-0.6,5-1.5,7.3,0.6c0.4,0.3,1,0.7,1.5,0.6c4.4-0.6,8.8-1.3,13.2-2c2.4-0.3,5.6-1.7,6.9-0.7c3.2,2.5,5.7,0.8,8.6,0.3
		c1.2-0.2,2.6,0.8,3.8,0.7c2.6-0.2,5.2-0.8,7.8-1.1c0.5-0.1,1.1,0.6,1.9,1c5-4.1,10.1,0.7,15.6-0.3c-0.1,0.1,0.2-0.4,0.1-0.3
		c4.1,0,7.8,0,11.7,0c0-0.1,0.2-0.6,0.3-1.2c0.4,0.1,0.7,0.1,0.8,0.2c2.2,2.9,5.2,1.4,7.9,1.5c4.1,0.1,8.3-0.7,12.1,0.3
		c4.5,1.1,8.7,3.6,12.2,5.1c-0.2,4.7-0.2,8.6-0.6,12.4c-0.4,3-1.1,6-2.1,8.8c-0.8,2.1-2.6,2.5-4.9,1.9c-1.8-0.5-3.7-0.3-5.6-0.3
		c-2.9,0-5.7,0.2-8.6,0.2c-3.8,0.1-7.6,0.2-11.4,0.3c-1.2,0-2.3-0.5-3.5-0.5c-3,0-6-0.2-8.9,0.3c-0.9,0.1-2,2.1-2.1,3.3
		c-0.3,7-0.5,14-0.5,21.1c0,2.3,1.3,4.6-1.1,6.5c-0.2,0.2,0.4,1.3,0.5,2.1c0.4,2.5,0.8,5,1.1,7.5c0.2,1.5,0,3.1,0.4,4.5
		c0.9,2.7,2,5.3,0.2,8.1c-0.2,0.3-0.3,0.9-0.1,1.3c1.6,3.9-0.1,7.9,0,11.8c0.1,4.6,1.3,9.3,0.4,13.7c-0.9,4.4,1.8,8.3-0.1,12.7
		c-1.1,2.6,0.2,6.2,0.4,9.3c0.1,1.1,0.3,2.2,0.1,3.2c-1.3,6.5-1.4,13-0.9,19.6c0.3,4.2-0.6,8.5-0.9,12.7c0,0.3,0.1,0.8,0.3,1
		c1.5,1.8,0.6,3.1-1,3.9c-1,0.5-2.3,0.6-3.5,0.6c-4.2,0.1-8.4,0.3-12.6,0.2c-2.6-0.1-5.3-0.4-7.8-0.9c-0.9-0.2-1.9-1.4-2.2-2.3
		c-0.7-2-1.2-4.1-1.2-6.2c0-3.6,0.7-7.2,0.4-10.8c-0.2-2.4,1.4-4.3,0.4-7.3c-1.3-3.6-0.2-8.1-0.2-12.2c0-1.2,0.1-2.3,0-3.5
		c0-2.7,0-5.5-0.1-8.2c-0.1-1.5-0.3-3-0.4-4.5c0-0.7,0-1.4,0.1-2.1c0.1-0.9,0.7-2,0.4-2.7c-0.9-2.1-1.1-3.8,0.4-5.8
		c0.4-0.6-0.3-2-0.3-3c0.1-4.8-1.5-9.7,0.1-14.5c0.1-0.3,0.2-0.7,0-1c-2.5-4.4-1.1-9-0.8-13.6c0.3-5.7-0.5-11.4,0-17.1
		c0.4-4.4-0.1-8.5-1-12.8c-0.6-2.8,0.9-5.9,1.1-8.9C243.5,35.4,243,33.5,242.9,32z"/>
	<path class="st0" d="M212.1,181c0.2-0.1,0.8-0.4,1.5-0.7c-0.4-0.1-0.8-0.3-1.3-0.4c-0.4-4.3-1-8.7-1.2-13c-0.1-2.4,0.2-4.8,0.4-7.2
		c0.1-2.1,0.2-4.2,0.2-6.3c0-1.5-0.4-3.1-0.5-4.6c-0.1-0.6,0-1.3,0.1-1.9c0.1-1.4,0.4-2.8,0.4-4.3c0.1-4.4,0.6-8.8,0.1-13.1
		c-0.5-3.9,1.4-8-1.1-11.6c-0.1-0.2-0.1-0.4-0.1-0.6c0.2-3.5,0.4-6.9,0.5-10.4c0.1-6.1,0.1-12.1,0.1-18.2c0-1-0.3-2,0.1-2.8
		c1.1-2.5,0.7-4.7-0.5-7.2c-0.7-1.5-0.3-3.5-0.2-5.3c0.3-4,0.7-8.1,1.1-13.2c-4,0.8-6.7,1.7-9.4,1.8c-1.3,0-2.8-1.4-3.7-1.9
		c-4.6,0.4-8.9,1-13.2,1.2c-3.2,0.1-6.5-0.3-9.7-0.5c-2.8-0.2-5.5-0.4-8.3-0.7c-0.4,0-1.1-0.3-1.1-0.5c-0.6-3.1-1.2-6.3-1.7-9.4
		c-0.2-1.1,0.3-2.4,0.1-3.4c-0.4-1.7-2-3.3-0.2-5.1c0.1-0.1-0.5-0.8-0.5-1.3c0.1-1.1,0.2-2.2,0.5-3.2c0.3-1.1,0.7-2.3,1.3-3.2
		c0.7-1.1,2-1.8,2.5-2.9c3.3-7.7,10.4-11.8,16.2-18.1c0.3,2.3,1.1,4,0.7,5.5c-1.3,5,0.9,9.5,2,14c1.4,5.7,5.3,9.3,11.2,10
		c4.3,0.5,8.6,0.4,12.9,0.6c3.2,0.2,6.5,0.4,9.7,0.5c2.9,0.1,5.8,0,8.8,0c1.6,11.1,2.1,22.3,1.1,33.7c-0.5,6,0.8,12.1,0.8,18.2
		c0,7.1-0.6,14.2-0.6,21.3c0,8.5,0.5,16.9,0.5,25.4c0,6.6-0.7,13.2-0.3,19.8c0.3,4.9,1.2,10,3,14.5c1.9,4.8,6.6,6.7,11.8,6.7
		c7.4,0,14.8,0,22.1,0c0.2,0.4,0.3,0.9,0.5,1.3c-5.3,5.3-10.9,10.3-15.8,15.9c-3.8,4.5-8.4,4.5-13.5,4.4c-5.6-0.1-11.2,0.5-16.9,0.4
		c-3,0-5.9-0.7-8.9-1.2c-0.5-0.1-1.2-0.8-1.3-1.3c-0.7-6-2.4-12-0.1-18C212.8,183.7,212.3,182.4,212.1,181z"/>
	<path class="st0" d="M441.1,181.5c-0.3,0.9-0.7,1.8-1,2.7c-4.1-0.9-3.4,2.1-3.6,4.1c-2.1,1.5-3.9,3.3-6.1,4.2
		c-3.4,1.4-5.4,4.1-8,6.4c-2,1.7-4.6,5.8-8.8,3c-0.5-0.3-1.9,0.6-2.1,0.7c-2.2-0.2-3.7-0.3-5.2-0.5c-0.8-0.1-1.7-0.4-2.5-0.5
		c-1.4-0.1-2.9-0.4-4.3-0.2c-2.9,0.5-5.8,1.1-8.3-1.1c-0.3-0.3-1.2-0.3-1.5,0c-3.2,2.6-6.3,1.3-9.5,0.2c-0.4-0.1-1-0.4-1.2-0.2
		c-3.3,3.3-7.3,0.7-10.9,1.1c-4.3,0.5-8.8-0.3-13.2-0.5c-0.7,0-1.4,0.5-2.2,0.6c-2.1,0.2-4.2,0.5-6.3,0.6c-3.8,0-7.6-0.1-11.3-0.1
		c-1.3,0-1.7-1-2.5-1.7c-4-3.5-0.2-7.8-1.8-11.3c-1.8-3.9-0.7-7.5,1.5-11c0.3-0.5,0.1-1.5-0.1-2.2c-0.1-0.4-0.9-0.8-0.8-0.9
		c2.2-5.4-3-10.9,0.3-16.5c1-1.8-0.1-4.8-0.2-7.3c-0.1-1.1-0.4-2.2-0.1-3.2c1.3-4.2,0.7-8.2,0.3-12.5c-0.6-5.9-0.2-12.2,1.1-18
		c0.5-2.2,0.5-2.9-0.8-4.4c-0.5-0.6-0.6-1.8-0.5-2.8c0.3-5.8,1.4-11.7-1.3-17.4c-0.3-0.6-0.1-2.1,0.4-2.4c2.9-1.9,1.9-4.6,1.8-7.1
		c-0.2-4.4-0.4-8.9-0.5-13.3c-0.2-5.4-0.5-10.8-0.5-16.2c0-3.1,0.6-6.2,0.8-9.3c0.1-1.2,0.1-2.7-0.5-3.7c-2.3-4-1.6-7.7,0.8-11.3
		c2.3-3.4,5.5-6.5,6.5-10.2c0.7-2.6,2.9-3.3,3.7-5.4c0.9-2.4,2.8-4.4,4.3-6.5c0.1-0.1,0.4-0.1,0.8-0.2c0,5.5,2.6,10.7,0.7,16.3
		c-0.6,1.7,0.6,4,0.7,6.1c0.3,7.9,0.4,15.9,0.6,23.8c0,0.3,0.1,0.7,0,1c-3.1,5.1-1.2,10.2-0.8,15.5c0.7,8.9,0.4,17.8,0.6,26.8
		c0.1,4.2,0.3,8.5,0.1,12.7c-0.4,7.7-1.3,15.4-1.4,23.1c-0.2,9.9,0,19.9,0.3,29.8c0.1,3.4,0.4,7,1.6,10.1c3,7.6,9.8,9.1,17,8.9
		c8.6-0.2,17.1-1.1,25.7-1.3c3.5-0.1,7,1.1,10.5,1.1c7.9,0,15.8-0.5,23.7-0.5C431.6,180.6,436.2,181.2,441.1,181.5z"/>
	<path class="st0" d="M22.2,50.3c-1.7,6.3-0.3,12.4,0.2,18.6c0.4,4.7-0.5,9.5-0.9,14.2c-0.1,1.1-0.3,2.2-0.3,3.2
		c-0.1,4.8-0.2,9.5,0,14.3c0.2,3.9,1,7.8,1.2,11.7c0.3,5.6,0.2,11.2,0.3,16.8c0,3.4,0,6.8,0.1,10.1c0.3,5.8,3.3,10.6,7.4,14.1
		c3.3,2.9,4.8,6.5,6.8,10c0.4,0.7,0.6,1.4,1.1,2c3.3,3.5,6.3,7.4,10,10.3c6.1,4.7,12.5,8.3,20.8,8.7c6.4,0.3,12.7-0.7,19-0.5
		c8.2,0.3,16.3,0.1,24.5,0.1c0.2,0.4,0.3,0.8,0.5,1.3c-5.4,5.3-10.8,10.7-16.2,16c-0.9,0.8-1.6,1.8-2.5,2.6
		c-0.9,0.7-2.1,1.5-3.1,1.5c-4.1,0-8.2-0.5-12.3-0.5c-3.7,0-7.4,0.5-11.2,0.5c-4.9,0-9.9-0.3-14.8-0.4c-1.1,0-2.2,0.4-3.3,0.6
		c-0.8,0.2-1.7,0.6-2.5,0.5c-3.3-0.4-6.7-0.6-10-1.4c-1.7-0.4-3.2-1.8-4.6-3c-0.8-0.7-1.2-1.9-2.1-2.4c-5.8-3.4-9-9-13.1-14
		c-3.1-3.8-6.4-7.5-9.6-11.2c-2-2.3-2.7-6.7-1.2-9.2c0.1-0.2,0.4-0.3,0.4-0.5c-0.3-2.9-0.7-5.9-1-8.8c-0.1-1.5-0.1-3-0.2-4.5
		c-0.2-3.6-0.5-7.1-0.5-10.7c0-5.8,0.2-11.6,0.3-17.5c0-1,0.1-2-0.2-2.9c-0.8-2.5-1.3-4.8,1.1-6.8c0.4-0.3,0.4-1.4,0.3-2.1
		c-0.3-4.3-0.7-8.5-1-12.8c-0.2-2.9-0.2-5.8-0.3-8.7c-0.1-2.2-0.3-4.4-0.4-6.6c-0.1-2.5-0.5-5.1-0.3-7.6c0.2-2.5,0.2-5.4,1.4-7.5
		c1.6-2.7,4.2-4.8,6.4-7.2c0.3-0.4,0.8-0.8,0.9-1.2C14.6,54.8,18.5,52.7,22.2,50.3z"/>
	<path class="st0" d="M509.6,10.5c-0.7,6.6-0.4,11.8,4.1,16.9c4.3,4.8,7.2,10.9,10.7,16.5c0.6,0.9,1.3,1.7,1.9,2.7
		c2.3,4,5.2,7.9,6.7,12.2c1.4,4,3.1,7.4,5.9,10.6c2.6,3,4,6.9,5.9,10.5c-3.9,6.3-7.8,12.8-11.7,19.2c-0.5,0.7-1.1,1.4-1.5,2.2
		c-2.7,5-5.3,10.1-7.9,15.1c-0.1,0.1-0.1,0.2-0.2,0.3c-7.8,7.1-9.1,18.7-17.3,25.6c-0.3,0.3-0.6,0.7-0.8,1.1
		c-3.2,7-6.7,13.9-9.3,21.1c-1.1,3-0.9,7,0,10.2c1.1,4.2,4.5,6.6,9,6.7c2.3,0.1,4.6-0.1,6.9,0c3.1,0.2,6.2,0.7,9.9,1.2
		c-1.6,2.8-2.3,5.3-4,6.6c-3.5,2.8-4.9,6.8-7,10.3c-2.1,3.5-5,4.2-8.3,4.3c-4.5,0.1-9-0.2-13.5-0.5c-4.4-0.3-8.8-0.7-13.3-1.1
		c-2.2-0.2-3.1-1.4-2.8-3.5c0.2-1,0.6-1.9,0.5-2.9c-0.4-5.3,1.8-9.4,5.8-12.7c0.9-0.8,1.5-2.4,1.5-3.7c0-2.4,0.9-4.2,2.2-6.2
		c4.3-6.4,8.6-12.9,12.3-19.6c8.4-15.4,16.5-30.9,24.7-46.4c1.6-2.9,3.4-5.8,4.6-8.8c0.5-1.3,0.3-3.7-0.6-4.5
		c-3.2-2.9-4.7-6.5-6.3-10.4c-2.1-5-5.2-9.5-7.9-14.2c-0.2-0.3-0.6-0.5-0.6-0.7c-0.9-5.4-5.5-8.2-8.3-12.3c-2.1-3-3-6.8-4.6-10.2
		c-0.7-1.4-1.7-2.7-2.6-4c-0.8-1.3-1.8-2.6-2.4-4.1c-1.4-3.1,0-5.4,2-7.9c4.5-5.5,8.7-11.2,13.1-16.8
		C507.5,12.2,508.6,11.4,509.6,10.5z"/>
	<path class="st0" d="M573.4,130.5c4.9,8.4,9.7,16.6,14.5,24.7c3.7,6.4,7,13,11.1,19.2c2.9,4.4,7.4,6.7,12.8,6.7
		c6.9,0.1,13.8,0,20.6,0.1c2.2,0,4.5,0.4,7.8,0.7c-6,5.9-11.3,11.2-16.6,16.5c-0.2,0.2-0.6,0.3-0.8,0.6c-2.7,4.7-7.2,4.5-11.7,4.5
		c-6.8,0-13.5-0.1-20.3-0.2c-3.5,0-5.7-1.5-7.4-4.8c-4.7-8.7-9.8-17.1-14.7-25.7c-2.1-3.8-3.9-7.7-6-11.5c-0.6-1.1-1.5-2.1-2.4-3
		c-3.1-3-2.9-4.1-0.4-7.5c1.9-2.6,2.9-5.8,4.6-8.6c1.5-2.5,3.2-4.8,4.9-7.1C570.7,133.7,571.9,132.4,573.4,130.5z"/>
	<path class="st0" d="M281.4,60.3c0-5.6,0-11.3,0-16.9c7.6-3,15.2-0.2,22.7,0C302.4,46.1,283.5,60.4,281.4,60.3z"/>
	<path class="st0" d="M574.4,29.9c-2-3-2-5.4,0.1-8.1c3.6-4.8,6.6-10,10-14.9c0.8-1.1,2-2,3.2-2.7C585.7,14.1,578.6,21.2,574.4,29.9
		z"/>
	<path class="st0" d="M399.3,131.7c0.5-7.8,1-15.2,1.5-23.6c3.3,0,6.5,0.1,9.7,0.1c2.3,0,4.6,0,6.8-0.5c5.9-1.3,10.9,0.1,15.2,4.3
		c1.3,1.2,3.7,2.3,3.8,3.5c0.2,3.4,0.4,7.3-1.1,10.2c-1.4,2.6-4.9,5.6-7.6,5.8C418.3,132.2,409,131.7,399.3,131.7z"/>
	<path class="st0" d="M398.9,40.1c5.4-0.5,10.2-1.1,15-1.3c4.6-0.2,9.1,0,13.7,0.4c3.9,0.3,9.6,8.3,9,12.3c0,0.2,0,0.4-0.1,0.6
		c-0.6,1.6-10.8,8.5-12.5,8.5c-3.4,0-6.8,0.2-10.1-0.1c-2.3-0.2-4.6-1.1-6.9-1.3c-2.2-0.2-4.5-0.1-7-0.1
		C399.5,52.6,399.2,46.7,398.9,40.1z"/>
	<path class="st0" d="M98,134.7c0-2.7-0.1-5.5,0-8.2c0.1-2.3,0.7-4.5,0.6-6.8c-0.1-1.3-1.2-2.5-1.8-3.8c1.8-0.9,3.7-4.7,3.1-7.1
		c-0.5-2.3-1.3-4.6-1.9-6.8c-0.1-0.4-0.3-0.8-0.3-1.3c0.2-4.7,0.5-9.3,0.5-14c0.1-3.5,0.6-7.2-0.5-10.3c-1.1-3.1-4-5.5-6.2-8.2
		c-0.6-0.8-1.1-1.7-1.9-2.2c-1.4-0.9-2.9-1.6-4.3-2.3c-0.5-0.2-1.1-0.2-1.5-0.4c-1.5-0.8-2.8-2.1-4.4-2.6c-1.6-0.4-3.4-0.1-5.5-0.1
		c-0.1-5.3-0.8-10.1,3.2-14.6c3-3.3,6.3-2.7,9.7-2.9c2.7-0.2,5.4,0.3,8.1,0.1c4.9-0.3,9.5,0.4,13.8,2.9c3.2,1.9,4.7,5.9,4.5,9.6
		c-0.4,6.7-0.1,13.4-0.2,20.1c0,1.3,0,2.8-0.5,4c-1.8,3.8-1.7,7.3-0.6,11.4c0.9,3.6,0.5,7.6,0.5,11.5c-0.1,4.6-0.4,9.3-0.7,13.9
		c0,0.5-0.2,1.2,0,1.6c2,4.6-0.4,7.6-3.4,10.6c-0.7,0.7-1.3,1.5-1.8,2.3C105,134.4,102.5,135.5,98,134.7z"/>
</g>
</svg>
